<svg width="128" height="128" viewBox="0 0 128 128" xmlns="http://www.w3.org/2000/svg">
  <defs>
    <linearGradient id="skin" x1="0" y1="0" x2="0" y2="1">
      <stop offset="0%" style="stop-color:#388E3C" />
      <stop offset="100%" style="stop-color:#1B5E20" />
    </linearGradient>
    <linearGradient id="flesh" x1="0" y1="0" x2="0" y2="1">
      <stop offset="0%" style="stop-color:#E6EE9C" />
      <stop offset="100%" style="stop-color:#D4E157" />
    </linearGradient>
  </defs>
  <!-- Outer Skin -->
  <path d="M64,16C43,16 29,43 29,78C29,103 45,120 64,120C83,120 99,103 99,78C99,43 85,16 64,16Z" style="fill:url(#skin)" />
  <!-- Inner Flesh -->
  <path d="M64,23C47,23 35,46 35,78C35,102 48,113 64,113C80,113 93,102 93,78C93,46 81,23 64,23Z" style="fill:url(#flesh)" />
  <!-- The Pit -->
  <circle cx="64" cy="83" r="17" style="fill:#5D4037" />
  <!-- Pit Highlight -->
  <circle cx="59" cy="78" r="5" style="fill:#8D6E63;opacity:0.6" />
  <!-- Stem -->
  <rect x="62" y="8" width="4" height="10" rx="2" style="fill:#4E342E" />
  <!-- Leaf -->
  <path d="M64,12Q75,12 82,2Q70,4 64,12" style="fill:#66BB6A" />
</svg>