<svg width="128" height="128" viewBox="0 0 128 128" xmlns="http://www.w3.org/2000/svg">
  <defs>
    <filter id="avocado_shadow" x="-20%" y="-20%" width="140%" height="140%">
      <feGaussianBlur in="SourceAlpha" stdDeviation="2"/>
      <feOffset dx="1" dy="2"/>
      <feComponentTransfer>
        <feFuncA type="linear" slope="0.4"/>
      </feComponentTransfer>
      <feMerge>
        <feMergeNode/>
        <feMergeNode in="SourceGraphic"/>
      </feMerge>
    </filter>
    <filter id="avocado_grain">
      <feTurbulence type="fractalNoise" baseFrequency="0.6" numOctaves="3" result="noise"/>
      <feComposite operator="in" in2="SourceAlpha" result="maskedNoise"/>
      <feColorMatrix in="maskedNoise" type="matrix" values="0 0 0 0 0 0 0 0 0 0 0 0 0 0 0 0 0 0 0.5 0"/>
      <feBlend in="SourceGraphic" in2="lastResult" mode="multiply"/>
    </filter>
    <radialGradient id="avocado_skin_grad" cx="40%" cy="40%" r="60%">
      <stop offset="0%" style="stop-color:#2d3a1a"/>
      <stop offset="100%" style="stop-color:#0d1205"/>
    </radialGradient>
    <radialGradient id="avocado_flesh_grad" cx="50%" cy="55%" r="60%">
      <stop offset="10%" style="stop-color:#f5fbd3"/>
      <stop offset="50%" style="stop-color:#d4e67d"/>
      <stop offset="85%" style="stop-color:#739b28"/>
      <stop offset="100%" style="stop-color:#3e5c14"/>
    </radialGradient>
    <radialGradient id="avocado_pit_grad" cx="35%" cy="35%" r="65%">
      <stop offset="0%" style="stop-color:#8b5a2b"/>
      <stop offset="70%" style="stop-color:#5c3a1e"/>
      <stop offset="100%" style="stop-color:#3d2614"/>
    </radialGradient>
    <filter id="avocado_pit_shadow">
      <feGaussianBlur in="SourceAlpha" stdDeviation="1.5"/>
      <feOffset dx="1" dy="1"/>
      <feComponentTransfer>
        <feFuncA type="linear" slope="0.6"/>
      </feComponentTransfer>
      <feMerge>
        <feMergeNode/>
        <feMergeNode in="SourceGraphic"/>
      </feMerge>
    </filter>
  </defs>
  
  <g filter="url(#avocado_shadow)">
    <!-- Whole Avocado (Background) -->
    <g transform="translate(18, 22)">
      <path d="M26 0 C12 0 0 18 0 48 C0 78 12 90 28 90 C44 90 56 78 56 48 C56 18 40 0 26 0 Z" fill="url(#avocado_skin_grad)"/>
      <path d="M26 0 C12 0 0 18 0 48 C0 78 12 90 28 90 C44 90 56 78 56 48 C56 18 40 0 26 0 Z" fill="none" stroke="#1a240a" stroke-width="0.5" filter="url(#avocado_grain)"/>
      <rect x="24" y="-4" width="4" height="8" rx="1.5" fill="#3d2b1f"/>
    </g>

    <!-- Cut Half (Foreground) -->
    <g transform="translate(60, 28) rotate(5)">
      <!-- Outer Skin Rim -->
      <path d="M26 0 C12 0 0 20 0 52 C0 84 12 94 28 94 C44 94 56 84 56 52 C56 20 40 0 26 0 Z" fill="#121a08"/>
      <!-- Flesh -->
      <path d="M26 4 C14 4 3 22 3 52 C3 82 14 90 28 90 C42 90 53 82 53 52 C53 22 38 4 26 4 Z" fill="url(#avocado_flesh_grad)"/>
      
      <!-- Pit Hole/Pit -->
      <g filter="url(#avocado_pit_shadow)">
        <ellipse cx="28" cy="62" rx="15" ry="19" fill="url(#avocado_pit_grad)"/>
        <!-- Pit Highlight -->
        <ellipse cx="23" cy="55" rx="5" ry="7" fill="#ffffff" style="opacity:0.15" transform="rotate(-15, 23, 55)"/>
      </g>
      
      <!-- Moist Surface Highlight -->
      <path d="M12 30 Q 15 20 26 15" fill="none" stroke="#ffffff" stroke-width="2" stroke-linecap="round" style="opacity:0.2"/>
    </g>
  </g>
</svg>