<svg width="128" height="128" viewBox="0 0 128 128" xmlns="http://www.w3.org/2000/svg">
  <defs>
    <radialGradient id="coconutBody" cx="40%" cy="40%" r="60%">
      <stop offset="0%" style="stop-color:#8D6E63" />
      <stop offset="100%" style="stop-color:#5D4037" />
    </radialGradient>
    <linearGradient id="leafColor" x1="0%" y1="0%" x2="100%" y2="100%">
      <stop offset="0%" style="stop-color:#81C784" />
      <stop offset="100%" style="stop-color:#2E7D32" />
    </linearGradient>
  </defs>
  
  <!-- Leaf -->
  <path d="M64 36 C75 15 110 20 115 45 C95 50 70 45 64 36Z" fill="url(#leafColor)" />
  <path d="M64 36 C53 15 18 20 13 45 C33 50 58 45 64 36Z" fill="url(#leafColor)" opacity="0.8" />

  <!-- Coconut Body -->
  <path d="M64 28 C40 28 20 45 20 78 C20 110 40 120 64 120 C88 120 108 110 108 78 C108 45 88 28 64 28Z" fill="url(#coconutBody)" />
  
  <!-- Subtle Texture/Highlight -->
  <path d="M35 85 C35 100 50 112 64 112" fill="none" stroke="#A1887F" stroke-width="4" stroke-linecap="round" opacity="0.3" />

  <!-- Three Holes (Eyes) -->
  <circle cx="52" cy="54" r="6" fill="#3E2723" />
  <circle cx="76" cy="54" r="6" fill="#3E2723" />
  <circle cx="64" cy="42" r="7" fill="#3E2723" />
  
  <!-- Gloss highlight for eyes -->
  <circle cx="50" cy="52" r="2" fill="#ffffff" opacity="0.1" />
  <circle cx="74" cy="52" r="2" fill="#ffffff" opacity="0.1" />
  <circle cx="62" cy="40" r="2" fill="#ffffff" opacity="0.1" />
</svg>