<svg width="128" height="128" viewBox="0 0 128 128" xmlns="http://www.w3.org/2000/svg">
  <defs>
    <linearGradient id="skinGrad" x1="0%" y1="0%" x2="100%" y2="100%">
      <stop offset="0%" style="stop-color:#A1887F;stop-opacity:1" />
      <stop offset="100%" style="stop-color:#6D4C41;stop-opacity:1" />
    </linearGradient>
    <radialGradient id="fleshGrad" cx="50%" cy="50%" r="50%">
      <stop offset="0%" style="stop-color:#F1F8E9;stop-opacity:1" />
      <stop offset="30%" style="stop-color:#DCEDC8;stop-opacity:1" />
      <stop offset="100%" style="stop-color:#8BC34A;stop-opacity:1" />
    </radialGradient>
  </defs>
  <!-- Background Kiwi Body -->
  <ellipse cx="76" cy="54" rx="36" ry="46" fill="url(#skinGrad)" transform="rotate(15 76 54)" />
  <!-- Stem and Leaf -->
  <path d="M78 12 Q 80 2 88 6" stroke="#5D4037" stroke-width="4" fill="none" stroke-linecap="round" />
  <path d="M88 6 Q 108 2 104 22 Q 88 26 88 6" fill="#66BB6A" />
  <!-- Front Kiwi Slice -->
  <circle cx="48" cy="80" r="38" fill="#8D6E63" />
  <circle cx="48" cy="80" r="34" fill="url(#fleshGrad)" />
  <!-- Core -->
  <ellipse cx="48" cy="80" rx="10" ry="13" fill="#FFFFFF" fill-opacity="0.6" />
  <!-- Seeds -->
  <g fill="#212121">
    <circle cx="48" cy="62" r="2.5" />
    <circle cx="60" cy="67" r="2.5" />
    <circle cx="65" cy="80" r="2.5" />
    <circle cx="60" cy="93" r="2.5" />
    <circle cx="48" cy="98" r="2.5" />
    <circle cx="36" cy="93" r="2.5" />
    <circle cx="31" cy="80" r="2.5" />
    <circle cx="36" cy="67" r="2.5" />
  </g>
</svg>