<svg width="128" height="128" viewBox="0 0 128 128" xmlns="http://www.w3.org/2000/svg">
  <defs>
    <radialGradient id="lemonGrad" cx="45%" cy="45%" r="50%">
      <stop offset="0%" style="stop-color:#FFF59D" />
      <stop offset="100%" style="stop-color:#FBC02D" />
    </radialGradient>
    <linearGradient id="leafGrad" x1="0%" y1="0%" x2="100%" y2="100%">
      <stop offset="0%" style="stop-color:#81C784" />
      <stop offset="100%" style="stop-color:#2E7D32" />
    </linearGradient>
  </defs>
  <!-- Stem -->
  <path d="M60,36 L68,36 L66,28 C66,28 64,25 62,28 Z" fill="#5D4037" />
  <!-- Leaf -->
  <path d="M64,34 C64,34 60,12 88,12 C88,12 92,32 68,38 Z" fill="url(#leafGrad)" />
  <!-- Lemon Body -->
  <path d="M112,64 C112,58 106,56 102,54 C95,36 82,26 64,26 C46,26 33,36 26,54 C22,56 16,58 16,64 C16,70 22,72 26,74 C33,92 46,102 64,102 C82,102 95,92 102,74 C106,72 112,70 112,64 Z" fill="url(#lemonGrad)" />
  <!-- Subtle Highlight -->
  <path d="M40,45 C50,35 70,35 80,45" fill="none" stroke="#FFFFFF" stroke-width="4" stroke-linecap="round" opacity="0.3" />
</svg>