<svg width="128" height="128" viewBox="0 0 128 128" xmlns="http://www.w3.org/2000/svg">
  <defs>
    <radialGradient id="strawberry_body_grad" cx="45%" cy="35%" r="60%">
      <stop offset="0%" style="stop-color:#ff4d4d" />
      <stop offset="70%" style="stop-color:#d40000" />
      <stop offset="100%" style="stop-color:#800000" />
    </radialGradient>
    <radialGradient id="strawberry_slice_grad" cx="50%" cy="50%" r="50%">
      <stop offset="0%" style="stop-color:#ffffff" />
      <stop offset="30%" style="stop-color:#fff0f0" />
      <stop offset="70%" style="stop-color:#ff4d4d" />
      <stop offset="100%" style="stop-color:#d40000" />
    </radialGradient>
    <linearGradient id="strawberry_leaf_grad" x1="0%" y1="0%" x2="100%" y2="100%">
      <stop offset="0%" style="stop-color:#5e9c12" />
      <stop offset="100%" style="stop-color:#2d5006" />
    </linearGradient>
    <filter id="strawberry_soft_shadow" x="-20%" y="-20%" width="140%" height="140%">
      <feGaussianBlur in="SourceAlpha" stdDeviation="2" />
      <feOffset dx="1" dy="2" result="offsetblur" />
      <feComponentTransfer>
        <feFuncA type="linear" slope="0.3" />
      </feComponentTransfer>
      <feMerge>
        <feMergeNode />
        <feMergeNode in="SourceGraphic" />
      </feMerge>
    </filter>
  </defs>
  
  <ellipse cx="64" cy="115" rx="45" ry="8" style="fill:#000000;fill-opacity:0.15;filter:url(#strawberry_soft_shadow)" />
  
  <g id="strawberry_slice_group" transform="translate(20, 75) rotate(-15)">
    <path d="M 0,0 C 0,-25 20,-40 40,-40 C 60,-40 75,-25 75,0 C 75,25 55,40 37,40 C 20,40 0,25 0,0" style="fill:url(#strawberry_slice_grad);stroke:#d40000;stroke-width:1" />
    <path d="M 37.5,-2 C 37.5,-10 33,-15 37.5,-20 M 37.5,2 C 37.5,10 42,15 37.5,20 M 34,-2 C 28,-5 22,-2 18,-8 M 41,-2 C 47,-5 53,-2 57,-8 M 34,2 C 28,5 22,2 18,8 M 41,2 C 47,5 53,2 57,8" style="fill:none;stroke:#ffffff;stroke-width:1.5;stroke-linecap:round;opacity:0.8" />
    <circle cx="5" cy="5" r="1.2" transform="rotate(20 37 0)" style="fill:#f2e691" />
    <circle cx="70" cy="5" r="1.2" style="fill:#f2e691" />
    <circle cx="37" cy="38" r="1.2" style="fill:#f2e691" />
  </g>

  <g id="strawberry_main_group">
    <path d="M 85,25 C 65,25 50,40 48,65 C 46,95 65,120 85,120 C 105,120 124,95 122,65 C 120,40 105,25 85,25" style="fill:url(#strawberry_body_grad)" />
    
    <g id="strawberry_seeds">
      <ellipse cx="65" cy="45" rx="1" ry="1.8" style="fill:#f2e691" transform="rotate(-10 65 45)" />
      <ellipse cx="85" cy="40" rx="1" ry="1.8" style="fill:#f2e691" />
      <ellipse cx="105" cy="45" rx="1" ry="1.8" style="fill:#f2e691" transform="rotate(10 105 45)" />
      <ellipse cx="60" cy="65" rx="1" ry="1.8" style="fill:#f2e691" transform="rotate(-5 60 65)" />
      <ellipse cx="85" cy="65" rx="1" ry="1.8" style="fill:#f2e691" />
      <ellipse cx="110" cy="65" rx="1" ry="1.8" style="fill:#f2e691" transform="rotate(5 110 65)" />
      <ellipse cx="70" cy="85" rx="1" ry="1.8" style="fill:#f2e691" />
      <ellipse cx="100" cy="85" rx="1" ry="1.8" style="fill:#f2e691" />
      <ellipse cx="85" cy="100" rx="1" ry="1.8" style="fill:#f2e691" />
      <ellipse cx="75" cy="55" rx="0.8" ry="1.5" style="fill:#f2e691" />
      <ellipse cx="95" cy="55" rx="0.8" ry="1.5" style="fill:#f2e691" />
      <ellipse cx="85" cy="80" rx="0.8" ry="1.5" style="fill:#f2e691" />
    </g>

    <g id="strawberry_calyx" transform="translate(85, 28)">
      <path d="M 0,0 C -5,-15 -20,-10 -25,-5 C -15,-2 -5,5 0,0" style="fill:url(#strawberry_leaf_grad)" />
      <path d="M 0,0 C 5,-15 20,-10 25,-5 C 15,-2 5,5 0,0" style="fill:url(#strawberry_leaf_grad)" />
      <path d="M 0,0 C -15,0 -18,15 -10,18 C -5,10 0,5 0,0" style="fill:url(#strawberry_leaf_grad)" />
      <path d="M 0,0 C 15,0 18,15 10,18 C 5,10 0,5 0,0" style="fill:url(#strawberry_leaf_grad)" />
      <path d="M 0,0 C 0,15 8,20 0,25 C -8,20 0,15 0,0" style="fill:url(#strawberry_leaf_grad)" />
      <path d="M -2,-2 L 2,-2 L 1,-12 L -1,-12 Z" style="fill:#4a7a0e" />
    </g>
    
    <path d="M 65,45 C 60,35 75,30 85,35" style="fill:none;stroke:#ffffff;stroke-width:2;opacity:0.2;filter:url(#strawberry_soft_shadow)" />
  </g>
</svg>