<svg width="128" height="128" viewBox="0 0 128 128" xmlns="http://www.w3.org/2000/svg">
  <defs>
    <linearGradient id="tropical-smoothie_liquid-grad" x1="0%" y1="0%" x2="0%" y2="100%">
      <stop offset="0%" style="stop-color:#ffed4a;stop-opacity:1" />
      <stop offset="50%" style="stop-color:#ff9c33;stop-opacity:1" />
      <stop offset="100%" style="stop-color:#ff5e3a;stop-opacity:1" />
    </linearGradient>
    <linearGradient id="tropical-smoothie_glass-shine" x1="0%" y1="0%" x2="100%" y2="0%">
      <stop offset="0%" style="stop-color:#ffffff;stop-opacity:0.6" />
      <stop offset="20%" style="stop-color:#ffffff;stop-opacity:0.1" />
      <stop offset="80%" style="stop-color:#ffffff;stop-opacity:0.1" />
      <stop offset="100%" style="stop-color:#ffffff;stop-opacity:0.5" />
    </linearGradient>
    <linearGradient id="tropical-smoothie_rim-shine" x1="0%" y1="0%" x2="0%" y2="100%">
      <stop offset="0%" style="stop-color:#ffffff;stop-opacity:0.8" />
      <stop offset="100%" style="stop-color:#ffffff;stop-opacity:0" />
    </linearGradient>
    <pattern id="tropical-smoothie_straw-pattern" x="0" y="0" width="10" height="10" patternUnits="userSpaceOnUse" patternTransform="rotate(45)">
      <rect width="5" height="10" fill="#ff3366" />
      <rect x="5" width="5" height="10" fill="#ffffff" />
    </pattern>
    <radialGradient id="tropical-smoothie_shadow-grad" cx="50%" cy="50%" r="50%" fx="50%" fy="50%">
      <stop offset="0%" style="stop-color:#000000;stop-opacity:0.2" />
      <stop offset="100%" style="stop-color:#000000;stop-opacity:0" />
    </radialGradient>
  </defs>
  
  <ellipse cx="64" cy="112" rx="35" ry="8" fill="url(#tropical-smoothie_shadow-grad)" />
  
  <path d="M42,25 L86,25 L80,108 C79,115 49,115 48,108 Z" fill="url(#tropical-smoothie_liquid-grad)" />
  
  <path d="M40,20 L88,20 L82,110 C81,118 47,118 46,110 Z" fill="none" stroke="rgba(255,255,255,0.6)" stroke-width="1.5" />
  <path d="M40,20 L88,20 L82,110 C81,118 47,118 46,110 Z" fill="url(#tropical-smoothie_glass-shine)" />
  
  <path d="M40,20 Q64,26 88,20 Q64,14 40,20" fill="#ffffff" fill-opacity="0.3" />
  
  <path d="M60,8 L60,40 L64,40 L64,8 Z" fill="url(#tropical-smoothie_straw-pattern)" transform="rotate(-15, 62, 40)" />
  <path d="M52,5 Q55,0 60,2 L62,10 L56,8 Z" fill="#ff3366" transform="rotate(-15, 62, 40)" />
  
  <g transform="translate(85, 30) rotate(15)">
    <circle cx="0" cy="0" r="14" fill="#ff9900" stroke="#ffcc33" stroke-width="1" />
    <circle cx="0" cy="0" r="12" fill="#ffcc33" />
    <path d="M0,0 L0,-12 M0,0 L10,-6 M0,0 L10,6 M0,0 L0,12 M0,0 L-10,6 M0,0 L-10,-6" stroke="#ff9900" stroke-width="1" fill="none" />
    <circle cx="0" cy="0" r="2" fill="#ffffff" fill-opacity="0.5" />
    <path d="M-2,0 A14,14 0 0 1 2,0" fill="none" stroke="#663300" stroke-width="1.5" stroke-linecap="round" />
  </g>
  
  <circle cx="48" cy="100" r="3" fill="#ffffff" fill-opacity="0.2" />
  <circle cx="55" cy="85" r="2" fill="#ffffff" fill-opacity="0.2" />
  <circle cx="78" cy="95" r="4" fill="#ffffff" fill-opacity="0.1" />
  <circle cx="72" cy="70" r="2.5" fill="#ffffff" fill-opacity="0.15" />
  
  <path d="M45,35 Q48,60 50,105" fill="none" stroke="url(#tropical-smoothie_rim-shine)" stroke-width="2" stroke-linecap="round" />
  <path d="M82,30 Q80,50 78,90" fill="none" stroke="#ffffff" stroke-opacity="0.4" stroke-width="1" stroke-linecap="round" />
</svg>