<svg width="128" height="128" viewBox="0 0 128 128" xmlns="http://www.w3.org/2000/svg">
  <defs>
    <linearGradient id="fleshGradient" x1="0%" y1="0%" x2="0%" y2="100%">
      <stop offset="0%" style="stop-color:#ff5e5e;stop-opacity:1" />
      <stop offset="100%" style="stop-color:#ff2e2e;stop-opacity:1" />
    </linearGradient>
    <linearGradient id="rindGradient" x1="0%" y1="0%" x2="0%" y2="100%">
      <stop offset="0%" style="stop-color:#44ad40;stop-opacity:1" />
      <stop offset="100%" style="stop-color:#2f7a2c;stop-opacity:1" />
    </linearGradient>
  </defs>
  <!-- Outer Rind -->
  <path d="M 14 55 A 50 50 0 0 0 114 55 L 14 55 Z" style="fill:url(#rindGradient);" />
  <!-- Pith (White Layer) -->
  <path d="M 20 55 A 44 44 0 0 0 108 55 L 20 55 Z" style="fill:#f1f2f6;" />
  <!-- Juicy Flesh -->
  <path d="M 26 55 A 38 38 0 0 0 102 55 L 26 55 Z" style="fill:url(#fleshGradient);" />
  <!-- Seeds -->
  <ellipse cx="46" cy="69" rx="2.5" ry="4" transform="rotate(15 46 69)" style="fill:#2f3542;" />
  <ellipse cx="64" cy="78" rx="2.5" ry="4" style="fill:#2f3542;" />
  <ellipse cx="82" cy="69" rx="2.5" ry="4" transform="rotate(-15 82 69)" style="fill:#2f3542;" />
  <!-- Small Leaf Detail -->
  <path d="M 102 55 Q 118 55 118 35 Q 100 30 102 55" style="fill:#44ad40; stroke:#2f7a2c; stroke-width:1.5; stroke-linecap:round;" />
</svg>