<svg width="128" height="128" viewBox="0 0 128 128" xmlns="http://www.w3.org/2000/svg">
  <defs>
    <linearGradient id="watermelon-cooler_juice-grad" x1="0%" y1="0%" x2="0%" y2="100%">
      <stop offset="0%" style="stop-color:#ff5c8a;stop-opacity:1" />
      <stop offset="100%" style="stop-color:#e01e37;stop-opacity:1" />
    </linearGradient>
    <linearGradient id="watermelon-cooler_rind-grad" x1="0%" y1="0%" x2="100%" y2="0%">
      <stop offset="0%" style="stop-color:#1b4332;stop-opacity:1" />
      <stop offset="50%" style="stop-color:#2d6a4f;stop-opacity:1" />
      <stop offset="100%" style="stop-color:#1b4332;stop-opacity:1" />
    </linearGradient>
    <linearGradient id="watermelon-cooler_glass-shine" x1="0%" y1="0%" x2="100%" y2="0%">
      <stop offset="0%" style="stop-color:#ffffff;stop-opacity:0.4" />
      <stop offset="20%" style="stop-color:#ffffff;stop-opacity:0.1" />
      <stop offset="80%" style="stop-color:#ffffff;stop-opacity:0.1" />
      <stop offset="100%" style="stop-color:#ffffff;stop-opacity:0.4" />
    </linearGradient>
    <radialGradient id="watermelon-cooler_shadow" cx="50%" cy="50%" r="50%">
      <stop offset="0%" style="stop-color:#000000;stop-opacity:0.2" />
      <stop offset="100%" style="stop-color:#000000;stop-opacity:0" />
    </radialGradient>
  </defs>

  <ellipse cx="64" cy="112" rx="30" ry="8" fill="url(#watermelon-cooler_shadow)" />

  <path d="M42 25 L48 108 Q48 115 55 115 L73 115 Q80 115 80 108 L86 25" fill="none" stroke="#e0fbfc" stroke-width="2" stroke-linejoin="round" />
  
  <path d="M43 35 L48 106 Q48 112 54 112 L74 112 Q80 112 80 106 L85 35 Z" fill="url(#watermelon-cooler_juice-grad)" />

  <rect x="52" y="45" width="12" height="12" rx="2" fill="#ffffff" fill-opacity="0.3" transform="rotate(15 58 51)" />
  <rect x="65" y="65" width="10" height="10" rx="2" fill="#ffffff" fill-opacity="0.2" transform="rotate(-10 70 70)" />

  <ellipse cx="55" cy="55" rx="1.5" ry="2.5" fill="#2d1300" transform="rotate(20 55 55)" />
  <ellipse cx="72" cy="78" rx="1.5" ry="2.5" fill="#2d1300" transform="rotate(-15 72 78)" />
  <ellipse cx="58" cy="90" rx="1.5" ry="2.5" fill="#2d1300" transform="rotate(10 58 90)" />
  <ellipse cx="68" cy="48" rx="1.2" ry="2" fill="#2d1300" transform="rotate(45 68 48)" />

  <path d="M72 35 L72 15 Q72 8 80 8 L85 8" fill="none" stroke="#ffea00" stroke-width="4" stroke-linecap="round" />
  <path d="M72 35 L72 15 Q72 8 80 8 L85 8" fill="none" stroke="#ff9100" stroke-width="4" stroke-linecap="round" stroke-dasharray="3,3" />

  <path d="M43 35 L48 106 Q48 112 54 112 L74 112 Q80 112 80 106 L85 35 Z" fill="url(#watermelon-cooler_glass-shine)" />

  <g transform="translate(30, 20) rotate(-20)">
    <path d="M0 0 Q15 25 30 0 Z" fill="url(#watermelon-cooler_rind-grad)" />
    <path d="M3 2 Q15 20 27 2 Z" fill="#f1faee" />
    <path d="M5 4 Q15 16 25 4 Z" fill="#ff4d6d" />
    <circle cx="12" cy="8" r="1" fill="#2d1300" />
    <circle cx="18" cy="8" r="1" fill="#2d1300" />
    <circle cx="15" cy="11" r="0.8" fill="#2d1300" />
  </g>

  <path d="M46 40 Q44 60 49 100" fill="none" stroke="#ffffff" stroke-width="1.5" stroke-linecap="round" opacity="0.6" />
  <ellipse cx="64" cy="35" rx="21" ry="4" fill="none" stroke="#ffffff" stroke-width="1" opacity="0.3" />
</svg>